<?xml version="1.0" encoding="UTF-8"?>
<svg id="Layer_2" data-name="Layer 2" xmlns="http://www.w3.org/2000/svg" viewBox="0 0 222.25 192.89">
  <defs>
    <style>
      .cls-1 {
        fill: #08281b;
      }

      .cls-1, .cls-2, .cls-3 {
        stroke-width: 0px;
      }

      .cls-2 {
        fill: #0b5933;
      }

      .cls-3 {
        fill: #158233;
      }
    </style>
  </defs>
  <g id="Layer_1-2" data-name="Layer 1">
    <path class="cls-2" d="M52.89,142.95c.88-14.84,2.7-29.47,9.9-42.84,10.25-19.03,26.1-29.78,47.66-32.27,8.06-.93,15.94-.35,23.61,2.02,13.39,4.13,21.62,13.65,26.18,26.49,4.46,12.56,6.21,25.67,7.24,38.9.19,2.49.67,4.99.54,7.46-.11,2.29-.85,4.63-3.89,4.55-3.05-.08-3-2.35-3.14-4.6-.94-15.37-1.99-30.71-7.82-45.25-6.11-15.25-15.92-22.33-33.23-23.02-16.39-.65-30.9,4.17-42.54,16.09-8.97,9.2-13.69,20.55-15.87,33.05-1.35,7.73-2.07,15.52-2.19,23.37-.01.93-.36,1.85-.47,2.79-.22,1.82-1.06,2.85-3.04,2.61-1.95-.24-2.98-1.27-2.95-3.29.03-2.02,0-4.04,0-6.06Z"/>
    <path class="cls-2" d="M112.38,55.99c13.41-.04,25.39,3.9,36.09,11.32,9.67,6.71,16.03,15.72,20.62,25.95,3.64,8.12,5.41,16.67,6.93,25.3,1.25,7.07,1.58,14.22,2.05,21.35.06.99.14,2-.04,2.96-.27,1.44-1,2.78-2.81,2.79-1.95,0-2.41-1.36-2.43-2.89-.1-7.08-.62-14.15-1.61-21.16-2.14-15.05-5.87-29.67-16.24-41.9-8.01-9.44-18.4-15.75-31.17-18.06-15.89-2.87-30.83-.44-44.17,8.41-7.75,5.13-12.65,12.49-17.1,20.12-2.39,4.1-4.22,8.43-6.02,12.78-3.39,8.17-4.49,16.77-5.86,25.33-.98,6.1-1.69,12.23-1.63,18.42.01,1.63-.64,2.99-2.7,2.96-2.11-.04-2.56-1.5-2.53-3.09.13-5.93.84-11.82,1.65-17.69,1.32-9.64,3.16-19.21,6.85-28.36,4.94-12.25,11.27-23.71,22.28-32.33,8.22-6.44,17.86-9.93,28.36-11.55,3.15-.49,6.32-.63,9.5-.66Z"/>
    <path class="cls-1" d="M22.76,118.22h14.21l7.62,29.97v-29.97h15.35v74.67h-15.35l-8.03-31.21v31.21h-13.8v-74.67Z"/>
    <path class="cls-2" d="M115.01,37.04c31.54-.21,54.06,18.98,64.68,45.25,5.13,12.68,7.79,25.89,9.21,39.43.91,8.63,2.01,17.24,2.04,25.94,0,2.5-.26,4.87-3.45,4.89-3.22.02-3.47-2.44-3.53-4.87-.5-19.9-2.4-39.62-9.1-58.52-5.31-14.99-13.62-27.89-27.36-36.78-20.68-13.4-46.61-11.3-66,1.23-2.88,1.86-5.28,4.5-7.72,6.96-2.25,2.27-4.09.92-5.66-.56-1.76-1.65.03-2.95,1.05-4.04,7.2-7.72,16.28-12.35,26.2-15.42,6.38-1.97,12.81-3.87,19.63-3.5Z"/>
    <path class="cls-2" d="M138.66,148.48c0,3.24-.06,6.49.02,9.73.06,2.19-1.06,3.18-3.06,3.39-2.23.24-3.67-.82-3.81-3-.2-3.12-.11-6.25-.11-9.38,0-8.68.3-17.46-1.53-25.94-2.82-13.07-16.85-18.4-27.43-10.69-5.23,3.81-6.54,9.75-7.32,15.8-.69,5.3-.49,10.64-.66,15.96-.07,2.21-.88,4.01-3.34,3.94-2.32-.07-3.57-1.8-3.53-3.98.17-8.66.07-17.43,3.1-25.67,4.45-12.08,13.25-16.6,24.06-15.74,13.91,1.1,20.28,9.7,22.12,21.69,1.21,7.88,1.59,15.89,1.48,23.89Z"/>
    <path class="cls-1" d="M136.05,182.28c0,5.66-2.37,10.61-10.71,10.61h-17.3c-8.34,0-10.71-4.94-10.71-10.61v-54.38c0-5.87,3.09-9.68,10.09-9.68h18.54c7,0,10.09,3.81,10.09,9.68v54.38ZM113.7,131.3c-1.03,0-1.34.52-1.34,1.44v45.52c0,1.13.21,1.55,1.44,1.55h5.66c1.24,0,1.44-.41,1.44-1.55v-45.52c0-.93-.31-1.44-1.34-1.44h-5.87Z"/>
    <path class="cls-1" d="M154.9,192.89c-8.55,0-11.64-3.3-11.64-11.53v-63.14h15.24v59.94c0,1.13.21,1.65,1.44,1.65h5.25c1.24,0,1.44-.52,1.44-1.65v-59.94h15.24v63.14c0,8.24-3.09,11.53-11.64,11.53h-15.35Z"/>
    <path class="cls-2" d="M206.15,66.13c7.18,13.06,10.31,27.17,12.6,41.54,1.62,10.16,3.11,20.33,3.49,30.63.06,1.65.02,3.33-1.12,4.58-1.8,1.98-3.75,3.98-6.83,3.09-3.29-.95-4.33-3.61-4.52-6.67-.6-9.46-1.2-18.91-2.8-28.28-3.58-21.02-9.92-40.91-23.92-57.59-13.64-16.24-30.7-26.76-51.9-29.65-26.65-3.63-50.32,3.25-70.33,21.4-11.67,10.59-19.42,23.96-25.16,38.45-5.79,14.6-9.36,29.78-10.6,45.48-.04.46,0,.95-.16,1.37-.66,1.77-.85,4.3-3.57,3.78-2.56-.49-3.42-2.57-3.08-5.05.64-4.69,1.18-9.39,2.06-14.03,3.49-18.52,8.89-36.36,18.7-52.65,14.94-24.8,36.33-40.24,65.12-45.03,26.62-4.44,50.24,2.73,71.42,18.74,6.66,5.04,12.37,11.18,17.07,18.17.62.92,1.13,2.9,2.7,1.91,1.22-.76,1.79-2.54.93-4.03-1.14-1.98-2.36-3.98-3.85-5.7-15.19-17.55-33.9-29.5-56.88-33.6-8.42-1.5-17.15-1.28-25.89-.62-14.13,1.07-26.9,5.55-39.11,12.24-18.37,10.07-31.29,25.29-40.91,43.55-7.66,14.55-12.29,30.08-15.15,46.25-1.09,6.18-2.53,12.25-2.67,18.58-.08,3.75-2.52,5.74-5.99,5.68-3.19-.06-5.87-2.84-5.78-6.4.27-10.47,2.52-20.66,4.89-30.79,4.43-18.95,11.32-36.84,22.65-52.9C45.82,22.65,70.47,6.65,101.72,1.57c33.17-5.39,62.71,3.13,88.25,25.14,7.05,6.08,13.36,12.8,18.47,20.6,5.03,7.66,4.39,13.3-2.3,18.81ZM5.01,135.21c2.31-.54,5.17-.93,4.95-2.79-.28-2.38-.12-5.42-2.48-7.32-.2,3.44-2.41,6.25-2.47,10.11Z"/>
    <path class="cls-2" d="M81.55,152.33c0,4.52-.03,9.04.01,13.55.02,2.3-1.46,3.1-3.33,3.12-2.06.03-3.03-1.15-2.99-3.35.29-15.03.01-30.13,3.57-44.86,3.1-12.85,9.69-23.14,23.02-27.57,7.19-2.39,14.51-2.51,21.82-.44,1.42.4,2.97.93,3.41,2.62.33,1.28-.07,2.56-.77,3.59-.84,1.23-2.02.58-3.13.24-8.68-2.59-17.17-2.3-25.04,2.48-8.31,5.04-11.77,13.38-13.74,22.32-2.05,9.29-2.28,18.8-2.82,28.29Z"/>
    <path class="cls-2" d="M133.89,55.38c-5.65-.71-11.02-2.26-16.62-2.37-6.84-.13-13.63-.25-20.29,1.7-1.3.38-3.17,1.63-3.75-.82-.46-1.95-.7-4.09,1.99-4.93,4.51-1.4,9.15-2.06,13.84-2.26,7.46-.32,14.82-.16,22.13,2.19,3.93,1.26,4.27,2.97,2.71,6.5Z"/>
    <path class="cls-3" d="M2.47,137.06c.09-6.33,3.82-10.95,4.16-16.59,3.98,3.12,3.71,8.11,4.18,12.02.37,3.05-4.45,3.69-8.35,4.58Z"/>
    <path class="cls-1" d="M.61,118.22h14.93v74.67H.61v-74.67Z"/>
    <path class="cls-1" d="M218.54,118.22l3.71,13.9h-9.99v60.77h-15.24v-60.77h-9.99l3.91-13.9h27.6Z"/>
    <path class="cls-2" d="M117.93,27.05c17.59-.05,33.31,5.49,47.34,15.93,12.68,9.43,21.03,22.11,27.04,36.5,4.77,11.42,7.09,23.45,9.1,35.58,1.64,9.95,2.07,19.99,2.69,30.03.09,1.39.19,2.82-.05,4.17-.36,2.03-1.31,3.91-3.69,3.92-2.55,0-3.16-1.92-3.19-4.07-.14-9.96-.81-19.9-2.12-29.77-2.8-21.17-7.7-41.73-21.31-58.93-10.5-13.28-24.14-22.16-40.89-25.4-20.85-4.03-40.44-.62-57.95,11.82-10.16,7.22-16.6,17.57-22.44,28.3-3.14,5.77-5.53,11.86-7.9,17.98-4.45,11.49-5.89,23.59-7.69,35.62-1.28,8.59-2.21,17.2-2.14,25.9.02,2.29-.84,4.21-3.54,4.16-2.77-.05-3.36-2.1-3.31-4.35.17-8.34,1.1-16.62,2.16-24.87,1.74-13.56,4.15-27.01,8.99-39.88,6.49-17.23,14.79-33.35,29.23-45.47,10.79-9.05,23.43-13.96,37.21-16.24,4.14-.68,8.29-.89,12.46-.92Z"/>
    <path class="cls-1" d="M66.95,149.66h24.88l-1.17,13.9h-24.88l1.17-13.9Z"/>
    <path class="cls-2" d="M152.59,152.78c.12,4.59.39,8.17.09,11.77-.2,2.49-1.58,3.54-3.73,3.72-2.42.21-2.62-1.68-2.88-3.47-.69-4.85-.34-9.73-.44-14.59-.3-14.82-1.5-29.5-5.52-43.86-3.92-13.99-10.15-20.04-26.94-19.76-16.13.27-28.14,7.98-35.6,22.36-3.6,6.93-5.12,14.5-5.79,22.2-.64,7.38-.98,14.79-1.4,22.19-.12,2.09-.83,3.74-3.11,3.79-2.24.06-3.26-1.32-3.19-3.58.45-14.31.58-28.7,5.63-42.35,6.35-17.18,19.09-26.89,36.88-30.32,6.93-1.33,13.81-1.02,20.59.83,10.81,2.95,15.93,11.23,19.04,21.06,3.5,11.04,4.95,22.46,5.66,33.99.35,5.67,1.04,11.32.69,16.02Z"/>
  </g>
</svg>